<svg width="13" height="20" viewBox="0 0 13 20" fill="none" xmlns="http://www.w3.org/2000/svg">
<g clip-path="url(#clip0_1063_4276)">
<path d="M0.046688 13.1417C0.046688 12.9527 0.113301 12.7636 0.245848 12.6196C0.511622 12.3309 0.941212 12.3309 1.20699 12.6196L5.48452 17.2668L5.48452 1.32635C5.48452 0.918722 5.78904 0.587891 6.16425 0.587891C6.53946 0.587891 6.84398 0.918722 6.84398 1.32635L6.84398 17.2668L11.1215 12.6196C11.3873 12.3309 11.8169 12.3309 12.0827 12.6196C12.3484 12.9084 12.3484 13.3751 12.0827 13.6638L6.64482 19.5715C6.57956 19.6432 6.50343 19.6963 6.42323 19.7325C6.34438 19.768 6.25737 19.7879 6.16629 19.7879C6.16493 19.7879 6.16357 19.7879 6.16221 19.7879C6.07113 19.7879 5.98412 19.768 5.90527 19.7325C5.82439 19.6963 5.74894 19.6432 5.68368 19.5715L0.245848 13.6638C0.113301 13.5198 0.046688 13.3308 0.046688 13.1417Z" fill="black"/>
</g>
<defs>
<clipPath id="clip0_1063_4276">
<rect width="20" height="13" fill="white" transform="translate(13) rotate(90)"/>
</clipPath>
</defs>
</svg>
