<svg width="16" height="16" viewBox="0 0 16 16" fill="none" xmlns="http://www.w3.org/2000/svg">
<g clip-path="url(#clip0_1042_6527)">
<rect width="16" height="16" fill="black"/>
<path d="M7.27914 11L4.88914 7.55L3.87914 8.62V11H2.82914V4H3.87914V7.22L6.94914 4H8.25914L5.59914 6.8L8.54914 11H7.27914ZM11.2894 11.08C9.77938 11.08 8.68937 9.99 8.68937 8.48C8.68937 6.97 9.77938 5.88 11.2894 5.88C12.7994 5.88 13.8794 6.97 13.8794 8.48C13.8794 9.99 12.7994 11.08 11.2894 11.08ZM11.2894 10.23C12.2394 10.23 12.8894 9.51 12.8894 8.48C12.8894 7.45 12.2394 6.73 11.2894 6.73C10.3294 6.73 9.67937 7.45 9.67937 8.48C9.67937 9.51 10.3294 10.23 11.2894 10.23Z" fill="white"/>
</g>
<defs>
<clipPath id="clip0_1042_6527">
<rect width="16" height="16" fill="white"/>
</clipPath>
</defs>
</svg>
