<svg width="147" height="56" viewBox="0 0 147 56" fill="none" xmlns="http://www.w3.org/2000/svg">
<path fill-rule="evenodd" clip-rule="evenodd" d="M77.1354 18.9409C75.9047 17.9058 73.8042 17.3889 70.8328 17.3889H64.1309V38.0998H69.1422V31.6087H71.3871C74.1116 31.6087 76.1096 31.0091 77.3811 29.8086C78.8132 28.4639 79.534 26.6731 79.534 24.4376C79.534 22.1195 78.7341 20.2868 77.1354 18.9409ZM71.2625 26.9223H69.1422V22.0752H71.0471C73.3641 22.0752 74.5226 22.8879 74.5226 24.5133C74.5226 26.1178 73.4351 26.9211 71.2625 26.9211V26.9223ZM88.1093 17.3877H82.8838V38.0986H94.1663V33.4111H88.1093V17.3877ZM104.404 17.3877L96.1957 38.0986H101.822L102.898 35.0877H110.03L111.014 38.0986H116.703L108.553 17.3877H104.404ZM104.343 30.895L106.495 23.8159L108.615 30.895H104.343Z" fill="black"/>
<path fill-rule="evenodd" clip-rule="evenodd" d="M119.314 38.098H124.54V17.3876H119.314V38.098ZM144.833 21.2693C144.172 20.3121 143.325 19.4989 142.341 18.879C140.763 17.8847 138.61 17.3887 135.885 17.3887H128.999V38.098H137.054C139.964 38.098 142.3 37.1468 144.063 35.242C145.826 33.3384 146.706 30.8119 146.706 27.6648C146.706 25.1616 146.081 23.0297 144.831 21.2693H144.833ZM136.469 33.4094H134.225V22.0762H136.501C138.099 22.0762 139.328 22.5768 140.189 23.5746C141.051 24.5724 141.482 25.9882 141.482 27.8208C141.482 31.5466 139.811 33.4094 136.469 33.4094V33.4094ZM21.6999 0L4.76216 4.43596L0.0943118 21.4684L5.93233 27.4622L0 33.357L4.39307 50.464L21.2574 55.1759L27.1909 49.2799L33.0289 55.2725L49.9666 50.8366L54.6333 33.803L48.7964 27.8115L54.7288 21.9167L50.3357 4.80854L33.469 0.0966364L27.5379 5.99146L21.6999 0ZM11.3058 7.71229L20.2281 5.37438L24.1298 9.37956L18.4397 15.0334L11.3058 7.71229ZM30.8923 9.43311L34.8569 5.4943L43.7409 7.97658L36.4905 15.1801L30.8923 9.43311ZM5.43981 20.0701L7.89774 11.0992L15.0293 18.4203L9.34036 24.0741L5.43981 20.0701ZM39.8426 18.6229L47.093 11.4171L49.4054 20.4287L45.442 24.3687L39.8426 18.6229ZM21.793 18.475L27.4831 12.8212L33.0801 18.5682L27.3912 24.222L21.793 18.475ZM12.6948 27.5158L18.3838 21.862L23.9843 27.6089L18.293 33.2627L12.6948 27.5158ZM30.7456 27.6636L36.4346 22.0098L42.0328 27.7568L36.3426 33.4106L30.7456 27.6636ZM5.32105 34.8438L9.2868 30.9027L14.8838 36.6508L7.63576 43.8531L5.32105 34.8438ZM21.6463 36.7044L27.3364 31.0506L32.9346 36.7975L27.2456 42.4513L21.6463 36.7044ZM39.6959 36.8534L45.3861 31.1996L49.2878 35.2036L46.831 44.1745L39.6959 36.8534ZM10.9879 47.2971L18.2371 40.0913L23.8376 45.8383L19.8718 49.7794L10.9879 47.2971ZM30.5989 45.893L36.2879 40.2392L43.4207 47.5614L34.4995 49.8982L30.5989 45.893Z" fill="black"/>
</svg>
