<svg width="1523" height="761" viewBox="0 0 1523 761" fill="none" xmlns="http://www.w3.org/2000/svg">
<g clip-path="url(#clip0_721_497)">
<path d="M284.681 0C114.681 0 0 127.051 0 299.135C0 471.22 114.681 598.271 284.681 598.271C453.806 598.271 568.488 471.22 568.488 299.135C568.488 127.051 453.806 0 284.681 0ZM284.681 521.365C166.501 521.365 90.0834 426.947 90.0834 299.135C90.0834 171.322 166.501 76.9049 284.681 76.9049C402.861 76.9049 478.404 171.322 478.404 299.135C478.404 426.947 402.861 521.365 284.681 521.365Z" fill="#000"/>
<path d="M815.123 169.039C756.525 169.039 705.471 196.341 680.436 237.676V175.674H599.316V761H680.436V533.657C704.705 573.36 754.886 598.923 810.969 598.923C938.988 598.923 1015.19 507.986 1015.19 383.98C1015.08 259.975 942.268 169.039 815.123 169.039ZM803.426 528.654C724.821 528.654 673.766 470.785 673.766 383.98C673.766 297.177 724.821 239.308 803.426 239.308C881.265 239.308 933.084 297.177 933.084 383.98C933.084 470.785 881.265 528.654 803.426 528.654Z" fill="#000"/>
<path d="M1225.96 169.039C1126.37 169.039 1051.04 230.17 1044.38 312.079H1119.7C1122.21 269.874 1164.85 233.543 1223.45 233.543C1288.72 233.543 1325.56 268.242 1325.56 318.715C1325.56 333.617 1316.38 343.516 1297.13 343.516H1209.24C1109.64 343.516 1045.25 393.118 1045.25 473.286C1045.25 547.689 1102.1 598.923 1188.36 598.923C1251.98 598.923 1305.55 569.118 1325.56 524.52V592.287H1406.68V323.61C1406.78 231.041 1334.74 169.039 1225.96 169.039ZM1325.56 409.652C1325.56 486.557 1281.18 535.289 1204.21 535.289C1157.31 535.289 1125.6 509.617 1125.6 471.654C1125.6 427.817 1161.57 399.753 1216.78 399.753H1325.56V409.652Z" fill="#000"/>
<path d="M1523 8.04541H1441.88V592.283H1523V8.04541Z" fill="#000"/>
</g>
<defs>
<clipPath id="clip0_721_497">
<rect width="1523" height="761" fill="white"/>
</clipPath>
</defs>
</svg>
