<svg width="117" height="66" viewBox="0 0 117 66" fill="none" xmlns="http://www.w3.org/2000/svg">
<path d="M69.582 0C69.582 0 69.0481 4.12269 67.7312 7.47126C66.8058 9.8203 64.8423 15.2806 59.8061 17.5555C58.7918 18.0153 56.2322 19.1334 53.281 18.3178C51.474 17.8184 49.8789 16.7439 48.7372 15.2569C46.0678 11.588 46.0115 3.81423 46.0115 0.688103V0H41.002V33.6399H45.8068V14.3226C46.9616 16.0694 48.4516 17.5695 50.1905 18.736C51.7552 19.8489 53.5288 20.6338 55.4047 21.0435C56.943 21.377 58.5274 21.4423 60.0879 21.2363C62.9859 20.7994 65.6656 19.4388 67.7282 17.3568C68.5371 16.5561 69.2452 15.6596 69.837 14.6874V33.6696H74.6419V0H69.582Z" fill="black"/>
<path d="M0 62.2582V50.8096H1.91305L5.49296 59.5918H5.52559L9.1055 50.8096H11.0185V62.2552H9.69869V52.7048H9.66607L5.72431 62.2582H5.29721L1.35841 52.7078H1.32578V62.2582H0Z" fill="black"/>
<path d="M17.3324 62.505C16.8013 62.5201 16.2732 62.4196 15.7847 62.2107C15.2962 62.0018 14.8589 61.6893 14.5029 61.2949C13.7614 60.4882 13.3906 59.3651 13.3906 57.9256C13.3906 56.4861 13.7713 55.3689 14.5325 54.5741C14.8835 54.1809 15.3149 53.8679 15.7975 53.656C16.28 53.4441 16.8025 53.3385 17.3294 53.3461C17.8508 53.3379 18.3677 53.4436 18.8441 53.6556C19.3205 53.8677 19.7449 54.1811 20.0878 54.5741C20.8352 55.3927 21.2089 56.5098 21.2089 57.9256C21.2089 59.3413 20.8441 60.4645 20.1145 61.2949C19.7674 61.6877 19.3384 61.9996 18.8577 62.2087C18.377 62.4178 17.8564 62.5189 17.3324 62.505V62.505ZM17.3324 61.2949C17.6847 61.2991 18.0332 61.2208 18.3499 61.0663C18.6666 60.9118 18.9428 60.6854 19.1565 60.4051C19.6409 59.8119 19.8831 58.9864 19.8831 57.9286C19.8831 56.8707 19.6429 56.0452 19.1624 55.452C18.9482 55.1702 18.6706 54.9428 18.3522 54.7882C18.0337 54.6336 17.6834 54.5562 17.3294 54.5622C16.9699 54.5544 16.6134 54.6292 16.2874 54.7809C15.9614 54.9326 15.6746 55.1571 15.449 55.4372C14.9586 56.0303 14.7134 56.8618 14.7134 57.9315C14.7134 59.0012 14.9586 59.8327 15.449 60.4259C15.6753 60.7054 15.9629 60.9292 16.2894 61.0799C16.616 61.2305 16.9728 61.3041 17.3324 61.2949Z" fill="black"/>
<path d="M29.1732 62.2583V61.4249H29.1406C28.8586 61.7378 28.5167 61.9909 28.1351 62.1693C27.421 62.4987 26.6195 62.5883 25.8503 62.4247C25.0811 62.2611 24.3854 61.8532 23.8671 61.2617C23.181 60.4333 22.8379 59.321 22.8379 57.925C22.8379 56.5291 23.1948 55.4198 23.9086 54.5972C24.2329 54.1985 24.6436 53.8786 25.1096 53.6618C25.5756 53.445 26.0848 53.3368 26.5987 53.3456C27.0549 53.3308 27.5085 53.4204 27.9248 53.6075C28.3412 53.7946 28.7093 54.0743 29.0012 54.4252H29.0338V50.3203H30.3744V62.2583H29.1732ZM29.0427 59.3813V56.712C29.0436 56.1596 28.8311 55.6283 28.4495 55.229C28.2439 55.0075 27.9925 54.8336 27.7128 54.7194C27.4331 54.6052 27.1319 54.5533 26.8301 54.5676C26.4551 54.5451 26.0803 54.6144 25.7382 54.7694C25.3961 54.9245 25.0969 55.1606 24.8666 55.4574C24.4197 56.0505 24.1963 56.879 24.1963 57.9428C24.1963 59.0066 24.4197 59.8351 24.8666 60.4283C25.0969 60.7251 25.3961 60.9612 25.7382 61.1162C26.0803 61.2713 26.4551 61.3406 26.8301 61.3181C27.4126 61.3365 27.9802 61.1317 28.4169 60.7457C28.6162 60.5786 28.7759 60.3692 28.8841 60.1327C28.9924 59.8961 29.0466 59.6385 29.0427 59.3784V59.3813Z" fill="black"/>
<path d="M39.1507 59.5921L40.2303 60.2951C39.9024 60.9285 39.4224 61.4707 38.8333 61.873C38.172 62.3089 37.3916 62.5286 36.6 62.5017C36.0553 62.5177 35.5137 62.4139 35.0135 62.1977C34.5133 61.9814 34.0667 61.6579 33.7052 61.2501C32.9538 60.4157 32.5781 59.3064 32.5781 57.9223C32.5781 56.5382 32.9459 55.4289 33.6815 54.5945C34.0343 54.1872 34.4735 53.8635 34.967 53.647C35.4605 53.4305 35.996 53.3266 36.5347 53.3429C37.0653 53.3249 37.5932 53.4258 38.0797 53.6383C38.5662 53.8507 38.999 54.1694 39.3465 54.5708C40.0662 55.3894 40.4261 56.5066 40.4261 57.9223V58.3138H33.9306C33.9189 59.0747 34.1634 59.8174 34.6246 60.4226C34.8579 60.7122 35.157 60.9419 35.4969 61.0926C35.8369 61.2432 36.208 61.3104 36.5792 61.2887C36.8902 61.2911 37.1995 61.2441 37.4957 61.1493C37.7238 61.0807 37.9436 60.9872 38.1512 60.8705C38.3374 60.7472 38.501 60.5927 38.6346 60.4137C38.7406 60.2795 38.8396 60.1399 38.9312 59.9955C38.9787 59.9401 39.0518 59.8057 39.1507 59.5921ZM33.9632 57.2431H39.1151C39.1083 56.556 38.8782 55.8898 38.4596 55.3449C38.0444 54.811 37.4067 54.5441 36.5466 54.5441C36.1822 54.5216 35.8177 54.5878 35.4845 54.7371C35.1513 54.8864 34.8593 55.1143 34.6335 55.4012C34.2146 55.9253 33.9792 56.5724 33.9632 57.2431V57.2431Z" fill="black"/>
<path d="M42.6484 62.2582V53.5917H43.9238V54.523H43.9564C44.1229 54.1826 44.3915 53.9027 44.7246 53.7222C45.0383 53.5431 45.3926 53.4471 45.7538 53.4434C45.8834 53.4433 46.0127 53.4573 46.1394 53.4849C46.2639 53.5126 46.3628 53.5373 46.436 53.559L46.519 53.6095L46.2728 54.9352C46.0572 54.8374 45.8212 54.7927 45.5847 54.8047C45.353 54.7855 45.1202 54.8258 44.9084 54.9218C44.6966 55.0179 44.5129 55.1664 44.3746 55.3534C44.1235 55.7192 43.998 56.3055 43.998 57.1123V62.2641L42.6484 62.2582Z" fill="black"/>
<path d="M48.3867 62.2584V53.5919H49.6947V54.4253H49.7273C49.9997 54.084 50.3537 53.8168 50.7565 53.6482C51.1985 53.4499 51.6779 53.3487 52.1624 53.3516C52.5793 53.3331 52.9955 53.4004 53.3853 53.5494C53.7751 53.6983 54.1301 53.9258 54.4284 54.2177C54.7223 54.5324 54.9498 54.9031 55.0971 55.3078C55.2444 55.7125 55.3085 56.1427 55.2855 56.5727V62.2644H53.9598V56.9938C53.9598 55.3804 53.2944 54.5736 51.9637 54.5736C51.367 54.5447 50.7827 54.7501 50.3354 55.146C50.1268 55.3522 49.9642 55.6002 49.8584 55.8737C49.7525 56.1472 49.7059 56.44 49.7214 56.7328V62.2614L48.3867 62.2584Z" fill="black"/>
<path d="M62.2383 62.2582V50.8096H69.1401V52.0523H63.5967V56.1898H68.6833V57.3762H63.5967V62.2493L62.2383 62.2582Z" fill="black"/>
<path d="M76.5218 59.5921L77.6014 60.2951C77.2735 60.9285 76.7935 61.4707 76.2044 61.873C75.5431 62.3089 74.7627 62.5286 73.9711 62.5017C73.4263 62.5177 72.8848 62.4139 72.3846 62.1977C71.8844 61.9814 71.4378 61.6579 71.0763 61.2501C70.3249 60.4157 69.9492 59.3064 69.9492 57.9223C69.9492 56.5382 70.317 55.4289 71.0526 54.5945C71.4054 54.1872 71.8446 53.8635 72.3381 53.647C72.8316 53.4305 73.3671 53.3266 73.9058 53.3429C74.4364 53.3249 74.9643 53.4258 75.4508 53.6383C75.9373 53.8507 76.3701 54.1694 76.7175 54.5708C77.4373 55.3894 77.7972 56.5066 77.7972 57.9223V58.3138H71.2987C71.2871 59.0747 71.5315 59.8174 71.9928 60.4226C72.226 60.7122 72.5251 60.9419 72.8651 61.0926C73.2051 61.2432 73.5761 61.3104 73.9473 61.2887C74.2583 61.2911 74.5677 61.2441 74.8638 61.1493C75.0919 61.0807 75.3117 60.9872 75.5193 60.8705C75.7055 60.7472 75.8691 60.5927 76.0027 60.4137C76.1088 60.2795 76.2078 60.1399 76.2993 59.9955C76.3448 59.9401 76.419 59.8057 76.5218 59.5921ZM71.3314 57.2431H76.4832C76.4764 56.556 76.2463 55.8898 75.8278 55.3449C75.4125 54.811 74.7748 54.5441 73.9147 54.5441C73.5503 54.5216 73.1858 54.5878 72.8526 54.7371C72.5194 54.8864 72.2274 55.1143 72.0017 55.4012C71.5828 55.9253 71.3473 56.5724 71.3314 57.2431Z" fill="black"/>
<path d="M80.0137 62.2582V53.5917H81.289V54.523H81.3217C81.4882 54.1826 81.7567 53.9027 82.0898 53.7222C82.4036 53.5431 82.7578 53.4471 83.119 53.4434C83.2487 53.4433 83.3779 53.4573 83.5046 53.4849C83.6292 53.5126 83.7281 53.5373 83.8012 53.559L83.8843 53.6095L83.6381 54.9352C83.4224 54.8374 83.1865 54.7927 82.95 54.8047C82.7182 54.7855 82.4854 54.8258 82.2736 54.9218C82.0618 55.0179 81.8781 55.1664 81.7399 55.3534C81.4887 55.7192 81.3632 56.3055 81.3632 57.1123V62.2641L80.0137 62.2582Z" fill="black"/>
<path d="M86.2277 59.7408V54.7847H85.0176V53.5983H86.2603V51.4717H87.5357V53.5983H89.6771V54.7847H87.5505V59.5747C87.5196 59.9474 87.5936 60.3214 87.7641 60.6543C87.9064 60.852 88.1902 60.9509 88.6153 60.9509H89.2767V62.2441H88.556C87.7374 62.2441 87.1442 62.0345 86.7764 61.6153C86.4086 61.1961 86.2257 60.5713 86.2277 59.7408Z" fill="black"/>
<path d="M91.8027 51.8418V50.3203H93.3391V51.8418H91.8027ZM91.9006 62.2583V53.5918H93.2412V62.2583H91.9006Z" fill="black"/>
<path d="M96.1211 62.2583V50.3203H97.4795V62.2583H96.1211Z" fill="black"/>
<path d="M100.25 51.8418V50.3203H101.786V51.8418H100.25ZM100.348 62.2583V53.5918H101.688V62.2583H100.348Z" fill="black"/>
<path d="M104.886 59.7408V54.7847H103.676V53.5983H104.919V51.4717H106.182V53.5983H108.323V54.7847H106.212V59.5747C106.181 59.9474 106.255 60.3214 106.425 60.6543C106.568 60.852 106.851 60.9509 107.276 60.9509H107.932V62.2441H107.211C106.393 62.2441 105.799 62.0345 105.432 61.6153C105.064 61.1961 104.882 60.5713 104.886 59.7408Z" fill="black"/>
<path d="M110.927 65.9361L112.659 61.3419L109.396 53.5918H110.802L113.255 59.5771H113.3L115.506 53.5918H116.859L112.199 65.9391L110.927 65.9361Z" fill="black"/>
</svg>
