<svg width="286" height="161" viewBox="0 0 286 161" fill="none" xmlns="http://www.w3.org/2000/svg">
<g clip-path="url(#clip0_718_472)">
<path d="M170.275 0C170.275 0 168.969 10.0666 165.746 18.2429C163.482 23.9787 158.677 37.3115 146.353 42.8662C143.87 43.9888 137.607 46.719 130.385 44.7274C125.963 43.5082 122.059 40.8845 119.265 37.2536C112.733 28.295 112.595 9.31339 112.595 1.68018V0H100.336V82.1403H112.094V34.9723C114.92 39.2374 118.566 42.9002 122.822 45.7486C126.651 48.4661 130.991 50.3826 135.581 51.383C139.346 52.1974 143.223 52.3566 147.042 51.8537C154.134 50.787 160.691 47.4648 165.739 42.381C167.718 40.4258 169.451 38.237 170.9 35.8631V82.2128H182.658V0H170.275Z" fill="white"/>
<path d="M0 152.02V124.065H4.6815L13.4421 145.509H13.5219L22.2825 124.065H26.964V152.013H23.7341V128.693H23.6543L14.0082 152.02H12.963L3.32423 128.7H3.24439V152.02H0Z" fill="white"/>
<path d="M42.4176 152.621C41.1179 152.657 39.8257 152.412 38.6302 151.902C37.4347 151.392 36.3645 150.629 35.4933 149.666C33.6788 147.696 32.7715 144.954 32.7715 141.439C32.7715 137.924 33.7029 135.196 35.5659 133.255C36.4248 132.295 37.4805 131.531 38.6614 131.014C39.8423 130.496 41.1208 130.238 42.4103 130.257C43.6862 130.237 44.9512 130.495 46.117 131.013C47.2828 131.53 48.3214 132.296 49.1604 133.255C50.9894 135.254 51.904 137.982 51.904 141.439C51.904 144.896 51.0112 147.638 49.2257 149.666C48.3763 150.625 47.3265 151.387 46.1502 151.897C44.974 152.408 43.6998 152.655 42.4176 152.621ZM42.4176 149.666C43.2798 149.676 44.1326 149.485 44.9076 149.108C45.6826 148.73 46.3585 148.178 46.8813 147.493C48.0668 146.045 48.6596 144.029 48.6596 141.446C48.6596 138.863 48.0717 136.847 46.8958 135.399C46.3717 134.711 45.6924 134.155 44.9131 133.778C44.1338 133.401 43.2764 133.212 42.4103 133.226C41.5306 133.207 40.6582 133.39 39.8604 133.76C39.0626 134.131 38.3606 134.679 37.8086 135.363C36.6086 136.811 36.0086 138.841 36.0086 141.453C36.0086 144.065 36.6086 146.095 37.8086 147.544C38.3625 148.226 39.0661 148.773 39.8653 149.141C40.6645 149.509 41.5377 149.688 42.4176 149.666Z" fill="white"/>
<path d="M71.3921 152.02V149.985H71.3122C70.6221 150.749 69.7855 151.367 68.8517 151.802C67.1042 152.607 65.1428 152.825 63.2605 152.426C61.3781 152.027 59.6756 151.03 58.4072 149.586C56.7282 147.563 55.8887 144.848 55.8887 141.439C55.8887 138.03 56.7621 135.322 58.5089 133.313C59.3025 132.34 60.3075 131.559 61.4479 131.029C62.5883 130.5 63.8344 130.236 65.092 130.257C66.2084 130.221 67.3183 130.44 68.3372 130.897C69.356 131.353 70.2569 132.036 70.9711 132.893H71.0509V122.87H74.3316V152.02H71.3921ZM71.0727 144.995V138.477C71.075 137.128 70.5549 135.831 69.6211 134.856C69.1181 134.315 68.5029 133.891 67.8184 133.612C67.1339 133.333 66.3967 133.206 65.6581 133.241C64.7406 133.186 63.8234 133.355 62.9862 133.734C62.1489 134.112 61.4168 134.689 60.8532 135.413C59.7597 136.862 59.2129 138.885 59.2129 141.482C59.2129 144.08 59.7597 146.103 60.8532 147.551C61.4168 148.276 62.1489 148.852 62.9862 149.231C63.8234 149.61 64.7406 149.779 65.6581 149.724C67.0837 149.769 68.4727 149.269 69.5412 148.326C70.0292 147.918 70.4198 147.407 70.6847 146.829C70.9496 146.252 71.0822 145.623 71.0727 144.988V144.995Z" fill="white"/>
<path d="M95.8067 145.509L98.4487 147.226C97.6463 148.772 96.4716 150.096 95.0301 151.078C93.4117 152.143 91.5019 152.679 89.5647 152.614C88.2317 152.653 86.9064 152.399 85.6823 151.871C84.4583 151.343 83.3653 150.553 82.4808 149.558C80.642 147.52 79.7227 144.812 79.7227 141.432C79.7227 138.052 80.6227 135.344 82.4227 133.306C83.2862 132.312 84.3608 131.521 85.5686 130.993C86.7763 130.464 88.0868 130.21 89.405 130.25C90.7034 130.206 91.9952 130.453 93.1858 130.971C94.3764 131.49 95.4356 132.268 96.2858 133.248C98.0471 135.247 98.9277 137.975 98.9277 141.432V142.388H83.0324C83.0038 144.246 83.602 146.059 84.7308 147.537C85.3016 148.244 86.0335 148.805 86.8654 149.173C87.6974 149.541 88.6055 149.705 89.5139 149.652C90.2749 149.658 91.0319 149.543 91.7567 149.311C92.3148 149.144 92.8527 148.916 93.3607 148.631C93.8165 148.33 94.2167 147.952 94.5438 147.515C94.8032 147.188 95.0455 146.847 95.2696 146.494C95.3857 146.359 95.5648 146.031 95.8067 145.509ZM83.1122 139.774H95.7196C95.7029 138.096 95.1399 136.469 94.1156 135.139C93.0994 133.835 91.5389 133.183 89.4341 133.183C88.5423 133.128 87.6504 133.29 86.835 133.654C86.0196 134.019 85.305 134.575 84.7526 135.276C83.7275 136.556 83.1512 138.136 83.1122 139.774Z" fill="white"/>
<path d="M104.365 152.02V130.858H107.486V133.132H107.566C107.974 132.301 108.631 131.618 109.446 131.177C110.214 130.74 111.081 130.505 111.965 130.496C112.282 130.496 112.598 130.53 112.908 130.597C113.213 130.665 113.455 130.725 113.634 130.779L113.837 130.902L113.235 134.139C112.707 133.9 112.13 133.791 111.551 133.82C110.984 133.773 110.414 133.872 109.896 134.106C109.377 134.341 108.928 134.703 108.589 135.16C107.975 136.053 107.668 137.485 107.668 139.455V152.034L104.365 152.02Z" fill="white"/>
<path d="M118.41 152.02V130.859H121.611V132.894H121.691C122.357 132.06 123.224 131.408 124.209 130.996C125.291 130.512 126.464 130.265 127.65 130.272C128.67 130.227 129.689 130.391 130.642 130.755C131.596 131.119 132.465 131.674 133.195 132.387C133.914 133.155 134.471 134.06 134.831 135.048C135.192 136.037 135.349 137.087 135.293 138.137V152.035H132.048V139.165C132.048 135.226 130.42 133.256 127.163 133.256C125.703 133.185 124.273 133.687 123.179 134.653C122.668 135.157 122.27 135.762 122.011 136.43C121.753 137.098 121.638 137.813 121.676 138.528V152.027L118.41 152.02Z" fill="white"/>
<path d="M152.305 152.02V124.065H169.194V127.1H155.629V137.203H168.077V140.1H155.629V151.998L152.305 152.02Z" fill="white"/>
<path d="M187.26 145.509L189.902 147.226C189.099 148.772 187.925 150.096 186.483 151.078C184.865 152.143 182.955 152.679 181.018 152.614C179.685 152.653 178.359 152.399 177.135 151.871C175.911 151.343 174.818 150.553 173.934 149.558C172.095 147.52 171.176 144.812 171.176 141.432C171.176 138.052 172.076 135.344 173.876 133.306C174.739 132.312 175.814 131.521 177.022 130.993C178.229 130.464 179.54 130.21 180.858 130.25C182.157 130.206 183.448 130.453 184.639 130.971C185.829 131.49 186.889 132.268 187.739 133.248C189.5 135.247 190.381 137.975 190.381 141.432V142.388H174.478C174.45 144.246 175.048 146.059 176.177 147.537C176.747 148.244 177.479 148.805 178.311 149.173C179.143 149.541 180.051 149.705 180.96 149.652C181.721 149.658 182.478 149.543 183.203 149.311C183.761 149.144 184.299 148.916 184.807 148.631C185.262 148.33 185.663 147.952 185.99 147.515C186.249 147.188 186.491 146.847 186.715 146.494C186.827 146.359 187.008 146.031 187.26 145.509ZM174.558 139.774H187.165C187.149 138.096 186.586 136.469 185.561 135.139C184.545 133.835 182.985 133.183 180.88 133.183C179.988 133.128 179.096 133.29 178.281 133.654C177.465 134.019 176.751 134.575 176.198 135.276C175.173 136.556 174.597 138.136 174.558 139.774Z" fill="white"/>
<path d="M195.803 152.02V130.858H198.924V133.132H199.004C199.411 132.301 200.068 131.618 200.883 131.177C201.651 130.74 202.518 130.505 203.402 130.496C203.719 130.496 204.036 130.53 204.346 130.597C204.65 130.665 204.892 130.725 205.071 130.779L205.275 130.902L204.672 134.139C204.144 133.9 203.567 133.791 202.988 133.82C202.421 133.773 201.851 133.872 201.333 134.106C200.815 134.341 200.365 134.703 200.027 135.16C199.412 136.053 199.105 137.485 199.105 139.455V152.034L195.803 152.02Z" fill="white"/>
<path d="M211.008 145.871V133.769H208.047V130.872H211.088V125.68H214.209V130.872H219.449V133.769H214.245V145.465C214.17 146.375 214.351 147.288 214.768 148.101C215.116 148.584 215.811 148.826 216.851 148.826H218.47V151.983H216.706C214.703 151.983 213.251 151.471 212.351 150.448C211.451 149.424 211.003 147.899 211.008 145.871Z" fill="white"/>
<path d="M224.654 126.585V122.87H228.414V126.585H224.654ZM224.894 152.02V130.858H228.175V152.02H224.894Z" fill="white"/>
<path d="M235.223 152.02V122.87H238.547V152.02H235.223Z" fill="white"/>
<path d="M245.326 126.585V122.87H249.086V126.585H245.326ZM245.566 152.02V130.858H248.846V152.02H245.566Z" fill="white"/>
<path d="M256.67 145.871V133.769H253.709V130.872H256.75V125.68H259.842V130.872H265.083V133.769H259.915V145.465C259.839 146.375 260.02 147.288 260.437 148.101C260.786 148.584 261.48 148.826 262.52 148.826H264.124V151.983H262.361C260.357 151.983 258.906 151.471 258.006 150.448C257.106 149.424 256.661 147.899 256.67 145.871Z" fill="white"/>
<path d="M271.454 161L275.693 149.782L267.709 130.858H271.149L277.152 145.473H277.261L282.661 130.858H285.97L274.568 161.007L271.454 161Z" fill="white"/>
</g>
<defs>
<clipPath id="clip0_718_472">
<rect width="286" height="161" fill="white"/>
</clipPath>
</defs>
</svg>
