<svg width="31" height="31" viewBox="0 0 31 31" fill="none" xmlns="http://www.w3.org/2000/svg">
<path d="M14.8878 18.0577C13.9902 17.4507 13.0867 16.8524 12.189 16.2454C12.0718 16.1646 11.988 16.1587 11.8667 16.2454L9.58862 17.7759C11.4167 18.9929 15.0496 21.4198 15.0496 21.4198V18.2681C15.0496 18.1966 14.9587 18.1052 14.8878 18.0577ZM12.1837 14.3505C13.0896 13.7552 13.9902 13.1524 14.8855 12.5423C14.9329 12.5042 14.9719 12.4568 15.0002 12.403C15.0284 12.3491 15.0452 12.29 15.0496 12.2294V9.2001C15.0496 9.2001 11.4167 11.6095 9.58511 12.8294C10.3878 13.3661 11.1478 13.8788 11.916 14.3786C11.9757 14.4173 12.1152 14.395 12.1837 14.3505ZM16.5636 12.5153C17.4898 13.1431 18.4201 13.7646 19.3544 14.3798C19.3893 14.3971 19.4277 14.4062 19.4667 14.4062C19.5056 14.4062 19.544 14.3971 19.5789 14.3798L21.9085 12.8288L16.4558 9.18311V12.3091C16.458 12.3492 16.4687 12.3883 16.4873 12.4239C16.5059 12.4595 16.5319 12.4907 16.5636 12.5153ZM15.8763 13.747C15.8325 13.7268 15.7845 13.7172 15.7363 13.7189C15.688 13.7207 15.6409 13.7337 15.5986 13.7569C15.3162 13.9327 15.0437 14.1202 14.7683 14.3048C14.2849 14.6288 13.283 15.3009 13.283 15.3009L15.5587 16.8161C15.6138 16.8498 15.6768 16.8681 15.7413 16.8692C15.8057 16.8704 15.8694 16.8542 15.9255 16.8226L18.2107 15.2991C18.2107 15.2991 16.2144 13.9714 15.8763 13.747ZM9.0144 14.1425V16.4634L10.75 15.3009L9.0144 14.1425Z" fill="#2F2F2F"/>
<path d="M15.7527 2.12378C8.50405 2.12378 2.62769 8.00015 2.62769 15.2488C2.62769 22.4974 8.50405 28.3738 15.7527 28.3738C23.0013 28.3738 28.8777 22.4974 28.8777 15.2488C28.8777 8.00015 23.0013 2.12378 15.7527 2.12378ZM23.8972 17.6511C23.8972 17.9898 23.7419 18.2289 23.4572 18.4181C21.0466 20.0197 18.6386 21.6249 16.2332 23.2339C15.8904 23.4636 15.5787 23.4537 15.2371 23.2257C12.8476 21.6242 10.4525 20.0291 8.05171 18.4404C7.75229 18.2417 7.60698 17.9974 7.60698 17.6359V12.9636C7.60698 12.6039 7.75464 12.3578 8.05347 12.1597C10.4505 10.5701 12.8546 8.97456 15.2447 7.37378C15.5857 7.14585 15.8945 7.1394 16.2373 7.36851C18.6412 8.97827 21.0486 10.5835 23.4595 12.1843C23.7337 12.3666 23.896 12.5916 23.896 12.9261L23.8972 17.6511Z" fill="#2F2F2F"/>
<path d="M19.283 16.2584C18.4006 16.8576 17.514 17.4502 16.6234 18.0361C16.4822 18.1287 16.4541 18.2301 16.4558 18.3988V21.407L21.905 17.7742L19.6474 16.2578C19.5127 16.1635 19.4195 16.1658 19.283 16.2584ZM22.4324 16.4605V14.139L20.6986 15.3033L22.4324 16.4605Z" fill="#2F2F2F"/>
</svg>
