<svg width="31" height="31" viewBox="0 0 31 31" fill="none" xmlns="http://www.w3.org/2000/svg">
<path d="M26.7783 2.12378H4.87065C3.67358 2.12378 2.62769 2.98511 2.62769 4.16811V26.1244C2.62769 27.3138 3.67358 28.3738 4.87065 28.3738H26.7718C27.9753 28.3738 28.8777 27.3068 28.8777 26.1244V4.16811C28.8847 2.98511 27.9753 2.12378 26.7783 2.12378ZM10.7646 24.0044H7.00405V12.3121H10.7646V24.0044ZM9.0144 10.5343H8.98745C7.78393 10.5343 7.00464 9.63843 7.00464 8.51694C7.00464 7.37495 7.80444 6.50015 9.03491 6.50015C10.2654 6.50015 11.0183 7.36851 11.0453 8.51694C11.0447 9.63843 10.2654 10.5343 9.0144 10.5343ZM24.5083 24.0044H20.7478V17.6113C20.7478 16.0796 20.2005 15.0332 18.84 15.0332C17.8005 15.0332 17.1853 15.7363 16.9117 16.4212C16.8091 16.6673 16.7816 17.0025 16.7816 17.3447V24.0044H13.021V12.3121H16.7816V13.9392C17.3289 13.1599 18.1837 12.0384 20.173 12.0384C22.6416 12.0384 24.5089 13.6656 24.5089 17.1736L24.5083 24.0044Z" fill="#2F2F2F"/>
</svg>
