<svg width="32" height="31" viewBox="0 0 32 31" fill="none" xmlns="http://www.w3.org/2000/svg">
<path d="M16.2527 2.12378C8.76304 2.12378 2.69019 8.15308 2.69019 15.5828C2.69019 21.53 6.57729 26.5691 11.966 28.3503C12.0415 28.3662 12.1187 28.3741 12.196 28.3738C12.6986 28.3738 12.8923 28.0164 12.8923 27.7058C12.8923 27.3835 12.8802 26.5398 12.8742 25.4148C12.4255 25.5166 11.9666 25.5696 11.5058 25.573C8.89624 25.573 8.30288 23.6101 8.30288 23.6101C7.6853 22.0574 6.79526 21.6414 6.79526 21.6414C5.6146 20.8386 6.78921 20.8152 6.88003 20.8152H6.88608C8.24839 20.9324 8.96284 22.2097 8.96284 22.2097C9.64097 23.3582 10.5492 23.6804 11.3605 23.6804C11.897 23.67 12.4251 23.5502 12.9105 23.3289C13.0316 22.4617 13.3828 21.8699 13.7703 21.53C10.7611 21.1902 7.59448 20.0359 7.59448 14.8796C7.59448 13.4089 8.12124 12.2078 8.98706 11.2703C8.8478 10.9304 8.38159 9.55933 9.12026 7.70776C9.21935 7.68482 9.32118 7.67496 9.423 7.67847C9.91343 7.67847 11.0214 7.86011 12.8499 9.09058C15.0717 8.489 17.4215 8.489 19.6433 9.09058C21.4718 7.86011 22.5798 7.67847 23.0703 7.67847C23.1721 7.67496 23.2739 7.68482 23.373 7.70776C24.1117 9.55933 23.6455 10.9304 23.5062 11.2703C24.372 12.2136 24.8988 13.4148 24.8988 14.8796C24.8988 20.0476 21.7261 21.1843 18.7048 21.5183C19.1892 21.9343 19.6251 22.7546 19.6251 24.0085C19.6251 25.8074 19.607 27.2605 19.607 27.7C19.607 28.0164 19.7947 28.3738 20.2972 28.3738C20.3786 28.3741 20.4597 28.3663 20.5394 28.3503C25.9341 26.5691 29.8152 21.5242 29.8152 15.5828C29.8152 8.15308 23.7423 2.12378 16.2527 2.12378Z" fill="#2F2F2F"/>
</svg>
