<svg width="472" height="855" viewBox="0 0 472 855" fill="none" xmlns="http://www.w3.org/2000/svg">
<g clip-path="url(#clip0_898_91)">
<path d="M472 0H0V855H472V0Z" fill="#F75A35"/>
<path d="M329.647 0C329.647 0 325.607 39.8041 315.643 72.1342C308.64 94.8139 293.784 147.533 255.676 169.497C248.001 173.935 228.633 184.731 206.303 176.856C192.629 172.035 180.56 161.661 171.921 147.304C151.722 111.881 151.296 36.8259 151.296 6.64356V0H113.391V324.79H149.747V138.283C158.485 155.148 169.76 169.631 182.918 180.894C194.757 191.639 208.177 199.217 222.371 203.173C234.012 206.393 246 207.023 257.808 205.034C279.737 200.816 300.013 187.68 315.62 167.578C321.74 159.847 327.099 151.192 331.577 141.806V325.076H367.934V0H329.647Z" fill="white"/>
<path d="M331.577 201C331.577 201 325.607 243.339 315.643 275.766C308.64 298.514 293.784 351.391 255.676 373.42C248.001 377.872 228.633 388.7 206.303 380.802C192.629 375.966 180.56 365.561 171.921 351.161C151.722 315.632 147 238.273 147 208L143.5 201L113.391 203.416V529.178H149.747V342.113C158.485 359.028 169.76 373.555 182.918 384.851C194.757 395.629 208.177 403.23 222.371 407.197C234.012 410.427 246 411.058 257.808 409.064C279.737 404.834 300.013 391.658 315.62 371.496C321.74 363.742 327.099 355.061 331.577 345.646V529.466H367.934V203.416L331.577 201Z" fill="white"/>
<path d="M331.577 367.9C331.577 367.9 325.607 407.704 315.643 440.035C308.64 462.714 293.784 515.433 255.676 537.397C248.001 541.836 228.633 552.631 206.303 544.757C192.629 539.935 180.56 529.561 171.921 515.204C151.722 479.781 147.5 405.182 147.5 375V361.5L113.391 367.9V692.69H149.747V506.184C158.485 523.048 169.76 537.532 182.918 548.794C194.757 559.539 208.177 567.118 222.371 571.073C234.012 574.293 246 574.923 257.808 572.934C279.737 568.717 300.013 555.58 315.62 535.479C321.74 527.747 327.099 519.093 331.577 509.706V692.977H367.934V367.9H331.577Z" fill="white"/>
<path d="M334 529.466C334 529.466 328.464 569.17 318.5 601.5C311.498 624.18 293.784 676.999 255.676 698.963C248.001 703.401 228.633 714.197 206.303 706.322C192.629 701.501 180.56 691.126 171.921 676.77C151.722 641.347 146.5 567.182 146.5 537V529.466H113.391V854.256H149.747V667.749C158.485 684.614 169.76 699.097 182.918 710.36C194.757 721.105 208.177 728.683 222.371 732.639C234.012 735.859 246 736.488 257.808 734.5C279.737 730.282 300.013 717.146 315.62 697.044C321.74 689.313 327.099 680.658 331.577 671.271V854.542H367.934V529.466H334Z" fill="white"/>
</g>
<defs>
<clipPath id="clip0_898_91">
<rect width="472" height="855" fill="white"/>
</clipPath>
</defs>
</svg>
