<svg width="698" height="855" viewBox="0 0 698 855" fill="none" xmlns="http://www.w3.org/2000/svg">
<rect width="697.747" height="855" fill="#F75A35"/>
<path d="M555.647 0C555.647 0 551.607 39.8041 541.643 72.1342C534.64 94.8139 519.784 147.533 481.676 169.497C474.001 173.935 454.633 184.731 432.303 176.856C418.629 172.035 406.56 161.661 397.921 147.304C377.722 111.881 377.296 36.8259 377.296 6.64356V0H339.391V324.79H375.747V138.283C384.485 155.148 395.76 169.631 408.918 180.894C420.757 191.639 434.177 199.217 448.371 203.173C460.012 206.393 472 207.023 483.808 205.034C505.737 200.816 526.013 187.68 541.62 167.578C547.74 159.847 553.099 151.192 557.577 141.806V325.076H593.934V0H555.647Z" fill="white"/>
<path d="M557.577 201C557.577 201 551.607 243.339 541.643 275.766C534.64 298.514 519.784 351.391 481.676 373.42C474.001 377.872 454.633 388.7 432.303 380.802C418.629 375.966 406.56 365.561 397.921 351.161C377.722 315.632 373 238.273 373 208L369.5 201L339.391 203.416V529.178H375.747V342.113C384.485 359.028 395.76 373.555 408.918 384.851C420.757 395.629 434.177 403.23 448.371 407.197C460.012 410.427 472 411.058 483.808 409.064C505.737 404.834 526.013 391.658 541.62 371.496C547.74 363.742 553.099 355.061 557.577 345.646V529.466H593.934V203.416L557.577 201Z" fill="white"/>
<path d="M557.577 367.9C557.577 367.9 551.607 407.704 541.643 440.035C534.64 462.714 519.784 515.433 481.676 537.397C474.001 541.836 454.633 552.631 432.303 544.757C418.629 539.935 406.56 529.561 397.921 515.204C377.722 479.781 373.5 405.182 373.5 375V361.5L339.391 367.9V692.69H375.747V506.184C384.485 523.048 395.76 537.532 408.918 548.794C420.757 559.539 434.177 567.118 448.371 571.073C460.012 574.293 472 574.923 483.808 572.934C505.737 568.717 526.013 555.58 541.62 535.479C547.74 527.747 553.099 519.093 557.577 509.706V692.977H593.934V367.9H557.577Z" fill="white"/>
<path d="M560 529.466C560 529.466 554.464 569.17 544.5 601.5C537.498 624.18 519.784 676.999 481.676 698.963C474.001 703.401 454.633 714.197 432.303 706.322C418.629 701.501 406.56 691.126 397.921 676.77C377.722 641.347 372.5 567.182 372.5 537V529.466H339.391V854.256H375.747V667.749C384.485 684.614 395.76 699.097 408.918 710.36C420.757 721.105 434.177 728.683 448.371 732.639C460.012 735.859 472 736.488 483.808 734.5C505.737 730.282 526.013 717.146 541.62 697.044C547.74 689.313 553.099 680.658 557.577 671.271V854.542H593.934V529.466H560Z" fill="white"/>
</svg>
